name C:\Users\u0101727\Documents\MyRepositories\upper-imu-dc\Results\main_tracking\Case_46\FLX02_angularVelocities_groundFrame.mot
datacolumns 4
datarows 58
range 0.51000000 1.08000000
endheader 
time	radius_imu_x	radius_imu_y	radius_imu_z	
          0.51000000	         -0.16616016	         -2.43822143	          0.11283712	
          0.52000000	         -0.16672655	         -2.43699073	          0.11258871	
          0.53000000	         -0.16556200	         -2.43453347	          0.11221068	
          0.54000000	         -0.16366975	         -2.43162811	          0.11115677	
          0.55000000	         -0.16144734	         -2.42889808	          0.10961655	
          0.56000000	         -0.15909428	         -2.42690562	          0.10789427	
          0.57000000	         -0.15666883	         -2.42609306	          0.10624729	
          0.58000000	         -0.15409431	         -2.42679349	          0.10482053	
          0.59000000	         -0.15111667	         -2.42901258	          0.10350760	
          0.60000000	         -0.14724150	         -2.43319891	          0.10201596	
          0.61000000	         -0.14185426	         -2.43725267	          0.09920126	
          0.62000000	         -0.13413716	         -2.44732625	          0.09597035	
          0.63000000	         -0.12266477	         -2.44404858	          0.08776639	
          0.64000000	         -0.12500455	         -2.45067665	          0.09463354	
          0.65000000	         -0.14252076	         -2.47484266	          0.12815407	
          0.66000000	         -0.16433393	         -2.49046888	          0.16460654	
          0.67000000	         -0.18349859	         -2.50249717	          0.19528273	
          0.68000000	         -0.19655433	         -2.51746671	          0.21970518	
          0.69000000	         -0.19866044	         -2.52175199	          0.22507122	
          0.70000000	         -0.19736170	         -2.52842729	          0.23262462	
          0.71000000	         -0.20421822	         -2.55254100	          0.26493024	
          0.72000000	         -0.21942999	         -2.58209994	          0.31121565	
          0.73000000	         -0.23722130	         -2.61320778	          0.35784760	
          0.74000000	         -0.25394167	         -2.64555390	          0.39979671	
          0.75000000	         -0.26801056	         -2.68136547	          0.43961981	
          0.76000000	         -0.27969577	         -2.72075718	          0.47790949	
          0.77000000	         -0.28983033	         -2.76223390	          0.51538757	
          0.78000000	         -0.29820036	         -2.80708702	          0.55243282	
          0.79000000	         -0.30492871	         -2.85478101	          0.58868431	
          0.80000000	         -0.31022252	         -2.90483650	          0.62416780	
          0.81000000	         -0.31414137	         -2.95674139	          0.65863457	
          0.82000000	         -0.31693341	         -3.00961905	          0.69185909	
          0.83000000	         -0.31880312	         -3.06268367	          0.72363903	
          0.84000000	         -0.32003013	         -3.11510415	          0.75380211	
          0.85000000	         -0.32092827	         -3.16613036	          0.78223821	
          0.86000000	         -0.32185447	         -3.21511167	          0.80890413	
          0.87000000	         -0.32320144	         -3.26152462	          0.83383501	
          0.88000000	         -0.32538289	         -3.30500125	          0.85714719	
          0.89000000	         -0.32880432	         -3.34535119	          0.87902663	
          0.90000000	         -0.33382356	         -3.38256582	          0.89970219	
          0.91000000	         -0.34071216	         -3.41678421	          0.91940583	
          0.92000000	         -0.34963031	         -3.44822125	          0.93832750	
          0.93000000	         -0.36062343	         -3.47707433	          0.95657349	
          0.94000000	         -0.37364137	         -3.50343446	          0.97413648	
          0.95000000	         -0.38857070	         -3.52723574	          0.99088408	
          0.96000000	         -0.40526752	         -3.54826443	          1.00656957	
          0.97000000	         -0.42357971	         -3.56622313	          1.02086214	
          0.98000000	         -0.44335605	         -3.58082230	          1.03339050	
          0.99000000	         -0.46444497	         -3.59187193	          1.04379423	
          1.00000000	         -0.48668501	         -3.59935805	          1.05177766	
          1.01000000	         -0.50988742	         -3.60349247	          1.05715809	
          1.02000000	         -0.53381124	         -3.60472970	          1.05989989	
          1.03000000	         -0.55813484	         -3.60374993	          1.06012933	
          1.04000000	         -0.58243077	         -3.60141490	          1.05813052	
          1.05000000	         -0.60615122	         -3.59870799	          1.05432790	
          1.06000000	         -0.62862965	         -3.59667016	          1.04926265	
          1.07000000	         -0.64910077	         -3.59634166	          1.04357073	
          1.08000000	         -0.66673682	         -3.59871478	          1.03796645	
